<svg width="210" height="180" viewBox="0 0 210 180" fill="none" xmlns="http://www.w3.org/2000/svg">
<path d="M105 0L208.923 180H1.07695L105 0Z" fill="#C9703E"/>
<path d="M105 180L208.923 0H1.07695L105 180Z" fill="#C9703E"/>
<mask id="mask0_201_30" style="mask-type:alpha" maskUnits="userSpaceOnUse" x="1" y="0" width="208" height="180">
<path d="M105 0L208.923 180H1.07695L105 0Z" fill="#C9703E"/>
<path d="M105 180L208.923 0H1.07695L105 180Z" fill="#C9703E"/>
</mask>
<g mask="url(#mask0_201_30)">
<rect x="23" y="60" width="164" height="59" fill="#3E8D22"/>
<rect x="23" y="79" width="164" height="17" fill="#C9A62C"/>
<rect x="23" y="83" width="164" height="13" fill="#C92C2C"/>
</g>
<rect x="105" y="38" width="73.5391" height="73.5391" transform="rotate(45 105 38)" fill="#864927"/>
<path d="M95.0975 63.4L99.2375 73.48L103.398 63.4H105.378V77H103.678V71.18L103.898 65.94L99.9975 75.4H98.3575L94.5375 65.9L94.7575 71.18V77H93.0575V63.4H95.0975ZM116.84 77L115.82 73.84H110.66L109.64 77H107.94L112.46 63.4H114.1L118.64 77H116.84ZM111.92 69.92L111.16 72.26H115.3L114.54 69.92L113.24 65.72L111.92 69.92ZM92.4423 98V84.4H96.6623C98.2223 84.4 99.4223 84.8733 100.262 85.82C101.102 86.7533 101.522 88.0467 101.522 89.7V92.68C101.522 94.3467 101.102 95.6533 100.262 96.6C99.4223 97.5333 98.2223 98 96.6623 98H92.4423ZM96.6223 86.04H94.1823V96.38H96.6223C98.6889 96.38 99.7223 95.1467 99.7223 92.68V89.7C99.7223 87.26 98.6889 86.04 96.6223 86.04ZM112.777 96.38V98H105.177V84.4H112.577V86.04H106.917V90.3H111.977V91.94H106.917V96.38H112.777ZM117.542 98H115.802V84.4H117.542V98ZM88.0788 113.68V119H86.3388V105.4H90.5988C91.8788 105.4 92.8654 105.74 93.5588 106.42C94.2654 107.087 94.6188 107.98 94.6188 109.1V109.96C94.6188 110.76 94.4321 111.453 94.0588 112.04C93.6988 112.627 93.1788 113.06 92.4988 113.34C93.0721 114.26 93.6054 115.193 94.0988 116.14C94.5921 117.087 95.0454 118.04 95.4588 119H93.4588C92.6988 117.187 91.8121 115.413 90.7988 113.68H88.0788ZM90.5988 107H88.0788V112.08H90.5988C91.2788 112.08 91.8188 111.893 92.2188 111.52C92.6188 111.133 92.8188 110.613 92.8188 109.96V109.1C92.8188 108.433 92.6188 107.92 92.2188 107.56C91.8188 107.187 91.2788 107 90.5988 107ZM98.0705 105.4H99.8705V114.12C99.8705 115.213 100.097 116.067 100.55 116.68C101.017 117.293 101.737 117.6 102.71 117.6C103.697 117.6 104.417 117.293 104.87 116.68C105.324 116.067 105.55 115.213 105.55 114.12V105.4H107.35V114.12C107.35 115.707 106.964 116.953 106.19 117.86C105.417 118.753 104.257 119.2 102.71 119.2C101.15 119.2 99.9838 118.753 99.2105 117.86C98.4505 116.953 98.0705 115.707 98.0705 114.12V105.4ZM113.359 105.4L117.499 115.48L121.659 105.4H123.639V119H121.939V113.18L122.159 107.94L118.259 117.4H116.619L112.799 107.9L113.019 113.18V119H111.319V105.4H113.359Z" fill="#D1713B"/>
</svg>
